<svg id="Layer_1" data-name="Layer 1" xmlns="http://www.w3.org/2000/svg" viewBox="0 0 2308.35 255.12"><defs><style>.cls-1{fill:#1b75bc;}.cls-2,.cls-3{fill:#231f20;stroke:#000;stroke-miterlimit:10;}.cls-3{stroke-width:4px;}</style></defs><title>mutouch</title><path d="M1030.59,131.86c0,4.41-2.43,7.07-6.12,7-3.39-.07-5.28-2.52-5.29-6.92q0-16.17,0-32.33c0-17,0-34,0-51,0-7.54-5.47-12.51-12.65-11.79-6,.61-10,5.4-10,12.42-.06,17.24,0,34.49,0,51.73s0,34.49,0,51.73a21.1,21.1,0,0,1-.26,4.06c-.85,4.37-5.08,6.2-8.8,3.79-1.9-1.23-3.66-2.68-5.47-4-7.8-5.83-15.49-11.82-23.42-17.47-7.14-5.09-16.46-4.8-22.41.26-4.08,3.47-4.27,6.58-.53,10.32Q975.27,189.3,1015,229c6.46,6.47,14.16,11.26,23.19,11.64,13.9.59,28,1.23,41.74-.69,22.43-3.15,40-22.37,41.13-45.51,1.07-22.41.24-39.7.24-39.7,0-9.14,11-11.25,11.84-.34,0,0,.15,16.57-.45,38.79-.8,29.85-24.76,55.72-54.67,58.56-13.69,1.3-27.63.84-41.39,0-12-.71-21.84-6.85-30.26-15.3q-39.42-39.51-78.87-79c-8.69-8.72-7.75-20.06,2.14-27.49a29,29,0,0,1,34.57-.82c6.25,4.3,12.21,9,18.3,13.54.69.52,1.44,1,2.63,1.76v-4.13c0-31,0-61.93,0-92.9,0-12.95,11.77-23.44,24.5-22.17,12.05,1.19,20.81,11,20.93,23.56.1,10.66,0,21.32,0,32v3.77"/><path class="cls-1" d="M960.85,49.56C961.2,24.89,977.2,6.13,1000.19,3c25.89-3.53,47.63,14.84,50.7,37.9.76,5.69,0,11.67-.68,17.45-.5,4.31-3.59,6.34-7,5.54s-4.83-3.89-3.89-8.08a33.83,33.83,0,0,0-15.69-37.08,34.33,34.33,0,0,0-40.37,4.14,33.61,33.61,0,0,0-8.12,38.52c.55,1.24,1.18,2.45,1.67,3.71a5.43,5.43,0,0,1-2.41,7c-2.5,1.46-5.66,1.09-7.14-1.65A67.3,67.3,0,0,1,962.05,58C961.08,54.8,961.07,51.3,960.85,49.56Z"/><path class="cls-1" d="M1139.25,138.44a26.62,26.62,0,0,1-20.78,2,22.83,22.83,0,0,1-14.53-16.48c0-5.12.11-16.1.11-15.56.06-1.58,0-3.17,0-4.76.06-4.39,2.4-7.07,6.1-7,3.32.07,5.35,2.62,5.38,6.91,0,5.22,0,10.44,0,15.66.08,6.4,5,11.5,11,11.44a11.3,11.3,0,0,0,11.51-11.35c.1-5.22,0-10.44.05-15.66,0-4.4,2.4-7.07,6.11-7,3.35.06,5.33,2.57,5.34,6.9,0,8.62,0,10.15,0,19.58S1139.25,138.44,1139.25,138.44Z"/><path class="cls-2" d="M1279.06,138.85a26.55,26.55,0,0,1-20.77,2,22.81,22.81,0,0,1-14.53-16.47c0-5.12.11-16.1.11-15.56.06-1.58,0-3.17,0-4.76.06-4.39,2.4-7.08,6.1-7,3.32.06,5.34,2.62,5.37,6.91,0,5.22,0,10.43,0,15.65.09,6.41,5,11.5,11,11.45a11.31,11.31,0,0,0,11.51-11.35c.1-5.22,0-10.44,0-15.66,0-4.41,2.4-7.07,6.1-7,3.36.06,5.34,2.57,5.35,6.9,0,8.62,0,10.15,0,19.58S1279.06,138.85,1279.06,138.85Z"/><path class="cls-3" d="M1193.89,83.45a3.64,3.64,0,0,1-3.74,3.66h-17.66V137a4,4,0,0,1-4,3.91,3.9,3.9,0,0,1-3.91-3.91V87.11h-17.75a3.57,3.57,0,0,1-3.65-3.66,3.65,3.65,0,0,1,3.65-3.74h43.32A3.72,3.72,0,0,1,1193.89,83.45Z"/><path class="cls-3" d="M1236.43,118.25c0,13.74-8.88,23.05-22.27,23.05s-22.27-9.31-22.27-23.05,8.79-23,22.27-23S1236.43,104.5,1236.43,118.25Zm-7.92-.09c0-11.48-7.74-15.74-14.35-15.74s-14.35,4.26-14.35,15.74,7.65,15.92,14.35,15.92S1228.51,129.73,1228.51,118.16Z"/><path class="cls-3" d="M1336.8,134.08a3.6,3.6,0,0,1-1.74,3,24.66,24.66,0,0,1-14.17,4.18c-12.36,0-23.23-8.53-23.23-23.05s10.87-23,23.23-23a24.66,24.66,0,0,1,14.17,4.17,3.61,3.61,0,0,1,1.74,3,3.57,3.57,0,0,1-3.3,3.48,3.31,3.31,0,0,1-1.91-.53c-3-1.56-5.49-2.78-10-2.78-10.09,0-16,6.35-16,15.66s5.91,15.65,16,15.65c4.52,0,7-1.22,10-2.78a3.3,3.3,0,0,1,1.91-.52A3.57,3.57,0,0,1,1336.8,134.08Z"/><path class="cls-3" d="M1386.82,112.24V137a4,4,0,0,1-4,3.91,3.9,3.9,0,0,1-3.92-3.91V113.11c0-6.61-2.78-10.61-9.56-10.61-6.27,0-10.79,4-14.27,8.35V137a4,4,0,0,1-4,3.91,3.9,3.9,0,0,1-3.91-3.91V80.5a3.91,3.91,0,0,1,3.91-4,4,4,0,0,1,4,4v22.7c3.66-4,8.44-8,16.18-8C1381.17,95.2,1386.82,102.94,1386.82,112.24Z"/><path class="cls-1" d="M1030.53,84.6c10.72-5.89,26.89-.69,33.16,12.43a28.92,28.92,0,0,1,21.74-1.7c8.65,3.24,13.76,8.4,13.76,14.82,0,23.09-.11,17.49-.11,16.94-.06,1.59,0,3.18,0,4.77-.06,4.39-2.42,7.07-6.13,7-3.34-.07-5.38-2.63-5.41-6.91,0-5.22,0-10.44,0-15.66-.09-6.4-5.06-11.5-11.07-11.45a11.36,11.36,0,0,0-11.58,11.36c-.09,5.22,0,10.44,0,15.65,0,4.41-2.42,7.08-6.14,7-3.37-.06-5.37-2.57-5.38-6.9,0-8.62,0-17.24,0-25.87a16.45,16.45,0,0,0-.37-4c-1.4-5.34-6.7-9.2-11.61-8.58-6.41.8-10.58,5-10.68,11.17-.14,9.07,0,18.15-.08,27.23,0,4.4-2.45,7.06-6.16,7-3.41-.07-5.31-2.52-5.31-6.92q0-16.15,0-32.33S1019.8,90.5,1030.53,84.6Z"/></svg>