<svg id="Layer_1" data-name="Layer 1" xmlns="http://www.w3.org/2000/svg" viewBox="0 0 2308.35 255.12"><defs><style>.cls-1{fill:#00b04c;}.cls-2{fill:#fff;}</style></defs><title>parkofflogo</title><path class="cls-1" d="M1055.69,253.91c-12.44,0-22.42-7.21-25.59-18.53a31.23,31.23,0,0,1-1.09-8.33q-.09-98.34,0-196.67c0-12.53,7.18-22.53,18.54-25.77a26.8,26.8,0,0,1,7.12-1q99.55-.06,199.1,0a25.55,25.55,0,0,1,25.57,24.85c.19,11.61.08,23.22.09,34.84q0,32.81,0,65.61,0,49,0,98c0,8.91-3.16,16.27-10.27,21.77a25.81,25.81,0,0,1-16.32,5.26Q1154.25,253.93,1055.69,253.91Z"/><path class="cls-2" d="M1115.42,97.75a40.62,40.62,0,0,0,1.45,13.88,42.67,42.67,0,0,0,6.53,13.27,39.84,39.84,0,0,0,9.24,9.13,41.49,41.49,0,0,0,14.3,6.54,41.24,41.24,0,0,0,32.36-5.68,39.36,39.36,0,0,0,10.42-9.89,41.13,41.13,0,0,0,7.48-17.19c.44-2.45.54-5,.71-6.59-.2-13.1-4.83-23.31-13.86-31.54a36.64,36.64,0,0,1-4.92-4.71c-3.69-4.93-1.65-12.39,3.95-15a10,10,0,0,1,10.79,1.14A61.39,61.39,0,0,1,1218,108.42a62.32,62.32,0,0,1-8.08,23.4A59.82,59.82,0,0,1,1196.25,148a61.82,61.82,0,0,1-11.82,7.66,60.73,60.73,0,0,1-38.59,5.75,63,63,0,0,1-24.17-9.89,58.9,58.9,0,0,1-17.32-18,63.43,63.43,0,0,1-7.67-17.46,61.79,61.79,0,0,1-1.47-23.69,61,61,0,0,1,9.66-26A59.85,59.85,0,0,1,1119.56,51a10.51,10.51,0,0,1,12.79.43,10.37,10.37,0,0,1,0,15.58,51.65,51.65,0,0,0-9.23,9.34A40.2,40.2,0,0,0,1115.42,97.75Z"/><path class="cls-2" d="M1146,46.41c-.85.14-1.61.25-2.37.4-.45.08-.66-.07-.69-.61-.07-1.26.14-1.58,1.51-2.12.36-.14.73-.28,1.1-.4a.65.65,0,0,0,.46-.75c0-1.91,0-3.83,0-5.74a8.6,8.6,0,0,1,5.19-8.54,12.35,12.35,0,0,1,9.54-.36,8.64,8.64,0,0,1,5.06,4.33,8.53,8.53,0,0,1,.91,3.85c0,2.13,0,4.25,0,6.38a.77.77,0,0,0,.54.86c.59.22,1.18.45,1.75.72a1.63,1.63,0,0,1,.72,2.17.59.59,0,0,1-.52.2c-.8-.1-1.59-.25-2.48-.39V57.49c0,2.83,0,5.65,0,8.47a4.93,4.93,0,0,1-2.61,4.7,13.64,13.64,0,0,1-5.31,1.68,18.82,18.82,0,0,1-7.17-.42,8.56,8.56,0,0,1-4.48-2.45,4.43,4.43,0,0,1-1.15-3v-20Z"/><path class="cls-1" d="M1163.41,43a.66.66,0,0,1,.32.88c-.3,1-.54,2.13-.79,3.16a29.3,29.3,0,0,0-12.71,0c-.27-1.12-.57-2.27-.83-3.44a.58.58,0,0,1,.25-.49,17.74,17.74,0,0,1,3-1.26,17.51,17.51,0,0,1,6.88-.19A10.19,10.19,0,0,1,1163.41,43Z"/><path class="cls-1" d="M1163.67,64.17c.07,1,0,1.16-.86,1.53a15.19,15.19,0,0,1-8.64,1,24.54,24.54,0,0,1-3.35-.85c-1.28-.41-1.41-.62-1.31-2.05.15-2.25.37-4.51.55-6.76.14-1.89.28-3.77.4-5.66,0-.58.19-.84.75-1a24.05,24.05,0,0,1,5.61-.7,20.53,20.53,0,0,1,5.4.76c.3.07.43.25.46.6.08,1.11.19,2.22.27,3.33Z"/><path class="cls-1" d="M1160.31,31.44c-.09-.33-.16-.67-.23-1a3,3,0,0,1,.9.06,5.86,5.86,0,0,1,3.51,3.28,1.36,1.36,0,0,1-1.08,2,3,3,0,0,1-.76-.61c-.77-1.16-1.49-2.34-2.24-3.52A.5.5,0,0,1,1160.31,31.44Z"/><path class="cls-1" d="M1148.66,33.8a5.92,5.92,0,0,1,3.73-3.38,2.14,2.14,0,0,1,.71,0,2.31,2.31,0,0,1-.12.72c-.47.81-1,1.58-1.47,2.37-.3.48-.61,1-.9,1.46s-.45.68-.9.66A1.26,1.26,0,0,1,1148.66,33.8Z"/><path class="cls-2" d="M1164.49,33.77a5.86,5.86,0,0,0-3.51-3.28,3,3,0,0,0-.9-.06c.07.34.14.68.23,1a.5.5,0,0,0,.1.19c.75,1.18,1.47,2.36,2.24,3.52a3,3,0,0,0,.76.61A1.36,1.36,0,0,0,1164.49,33.77Zm-15.83,0a1.26,1.26,0,0,0,1,1.86c.45,0,.68-.3.9-.66s.6-1,.9-1.46c.49-.79,1-1.56,1.47-2.37a2.31,2.31,0,0,0,.12-.72,2.14,2.14,0,0,0-.71,0A5.92,5.92,0,0,0,1148.66,33.8Zm-2.22,3.37a8.45,8.45,0,0,1,5.08-8.36,12.07,12.07,0,0,1,9.34-.35,8.47,8.47,0,0,1,5,4.24,8.34,8.34,0,0,1,.89,3.77c0,2.08,0,4.16,0,6.24a.75.75,0,0,0,.53.85c.58.22,1.15.45,1.72.7a1.62,1.62,0,0,1,.7,2.13.6.6,0,0,1-.51.2c-.78-.1-1.56-.25-2.43-.39v.71q0,5.07,0,10.14c0,2.77-.06,5.53,0,8.3a4.84,4.84,0,0,1-2.55,4.6,13.3,13.3,0,0,1-5.2,1.64,18.3,18.3,0,0,1-7-.41,8.32,8.32,0,0,1-4.38-2.41,4.31,4.31,0,0,1-1.13-3q0-9.48,0-19V46.2c-.83.14-1.58.25-2.32.39-.44.08-.64-.06-.67-.59-.07-1.23.14-1.55,1.47-2.07.36-.15.72-.28,1.08-.4s.46-.32.45-.73C1146.43,40.92,1146.47,39,1146.44,37.17Zm17.29,6.68a.66.66,0,0,0-.32-.88,10.19,10.19,0,0,0-3.84-1.34,17.51,17.51,0,0,0-6.88.19,17.74,17.74,0,0,0-3,1.26.58.58,0,0,0-.25.49c.26,1.17.56,2.32.83,3.44a29.3,29.3,0,0,1,12.71,0C1163.19,46,1163.43,44.9,1163.73,43.85Zm-.92,21.85c.86-.37.93-.52.86-1.53l-.72-9.75c-.08-1.11-.19-2.22-.27-3.33,0-.35-.16-.53-.46-.6a20.53,20.53,0,0,0-5.4-.76,24.05,24.05,0,0,0-5.61.7c-.56.13-.72.39-.75,1-.12,1.89-.26,3.77-.4,5.66-.18,2.25-.4,4.51-.55,6.76-.1,1.43,0,1.64,1.31,2.05a24.54,24.54,0,0,0,3.35.85A15.19,15.19,0,0,0,1162.81,65.7Z"/><path class="cls-2" d="M1114.81,154.27a10.25,10.25,0,0,0-2.91-7.27,12.91,12.91,0,0,0-5.9-3.26h-3c-.06,0-.11.11-.17.12a10.8,10.8,0,0,0-8.63,10.08c0-.27,0-.52,0-.79,0-16.4.08-32.8,0-49.2-.05-5.94,3.53-10.3,8.69-11.36.06,0,.11-.09.17-.13h3a12.82,12.82,0,0,1,5.9,3.26,10.25,10.25,0,0,1,2.91,7.26q0,25.62,0,51.24c0,.15,0,.31,0,.46Z"/><path class="cls-2" d="M1114.81,154.27v.41h0a10.61,10.61,0,0,1-7.72,9.65,10.32,10.32,0,0,1-12.85-9.37c0-.34,0-.69,0-1a10.8,10.8,0,0,1,8.63-10.08c.06,0,.11-.08.17-.12h3a12.91,12.91,0,0,1,5.9,3.26A10.25,10.25,0,0,1,1114.81,154.27Z"/><path class="cls-2" d="M1094.14,155.24a11.11,11.11,0,0,1,.06-1.3c0,.34,0,.69,0,1a10.32,10.32,0,0,0,12.85,9.37,10.61,10.61,0,0,0,7.72-9.65q0,25.4,0,50.81a10.6,10.6,0,0,1-7.73,10.12,10.32,10.32,0,0,1-12.85-9.37c0-.6,0-1.21,0-1.81C1094.19,188,1094.27,171.63,1094.14,155.24Z"/><path class="cls-2" d="M1106,156.08a12.82,12.82,0,0,1,5.9,3.26,10.25,10.25,0,0,1,2.91,7.26q0,25.62,0,51.24A10.6,10.6,0,0,1,1107.1,228a10.34,10.34,0,0,1-12.87-9.37c0-.61,0-1.22,0-1.82,0-16.4.08-32.8,0-49.2,0-5.94,3.53-10.3,8.7-11.37.06,0,.11-.08.16-.12Z"/><path class="cls-2" d="M1156.09,91.27a15,15,0,0,1-10.2-4.21,1.3,1.3,0,0,1-.36-1.48,1.26,1.26,0,0,1,1.14-.85,1.4,1.4,0,0,1,1.13.44,12.51,12.51,0,0,0,7.7,3.37,12.48,12.48,0,0,0,9.58-3.41,1.35,1.35,0,0,1,1.67-.2,1.33,1.33,0,0,1,.16,2.15,15,15,0,0,1-4.9,3.12A15.81,15.81,0,0,1,1156.09,91.27Z"/><path class="cls-2" d="M1149,81.61a1.35,1.35,0,0,1,1.5,0c.37.27.71.6,1.08.88a7.93,7.93,0,0,0,7.22,1.29,7.65,7.65,0,0,0,3.06-1.73,3.12,3.12,0,0,1,.53-.43,1.31,1.31,0,0,1,1.77.31,1.34,1.34,0,0,1-.2,1.83,10.57,10.57,0,0,1-5.73,2.9c-.58.1-1.18.13-1.52.16a10.9,10.9,0,0,1-7.51-2.82,2,2,0,0,1-.69-.93A1.38,1.38,0,0,1,1149,81.61Z"/><path class="cls-2" d="M1151.86,80.33a1.37,1.37,0,0,1-.1-1.91,1.34,1.34,0,0,1,2,0,3.78,3.78,0,0,0,1.42,1,3.5,3.5,0,0,0,3.76-.79,1.63,1.63,0,0,1,1.25-.58,1.28,1.28,0,0,1,1.09.72,1.25,1.25,0,0,1-.09,1.35,4.8,4.8,0,0,1-1.54,1.33,6.32,6.32,0,0,1-3.37.88A6.17,6.17,0,0,1,1151.86,80.33Z"/></svg>