<svg id="Layer_1" data-name="Layer 1" xmlns="http://www.w3.org/2000/svg" xmlns:xlink="http://www.w3.org/1999/xlink" viewBox="0 0 2308.35 255.12"><defs><style>.cls-1{fill:none;}.cls-2{clip-path:url(#clip-path);}.cls-3{fill:url(#linear-gradient);}.cls-4{clip-path:url(#clip-path-2);}.cls-5{clip-path:url(#clip-path-3);}.cls-6{clip-path:url(#clip-path-4);}.cls-7{clip-path:url(#clip-path-5);}.cls-8{clip-path:url(#clip-path-6);}.cls-9{clip-path:url(#clip-path-7);}.cls-10{clip-path:url(#clip-path-8);}.cls-11{clip-path:url(#clip-path-9);}.cls-12{clip-path:url(#clip-path-10);}.cls-13{clip-path:url(#clip-path-11);}.cls-14{clip-path:url(#clip-path-12);}.cls-15{clip-path:url(#clip-path-13);}.cls-16{fill:url(#linear-gradient-13);}</style><clipPath id="clip-path"><path class="cls-1" d="M621,185.86V131.52H555v54.34H529.61V51.45H555v56.64h66V51.45h25.15V185.86Z"/></clipPath><linearGradient id="linear-gradient" x1="529.61" y1="127.56" x2="1775.86" y2="127.56" gradientUnits="userSpaceOnUse"><stop offset="0.02" stop-color="#f6eb16"/><stop offset="0.49" stop-color="#f58020"/><stop offset="1" stop-color="#ed2124"/></linearGradient><clipPath id="clip-path-2"><path class="cls-1" d="M693.77,64.32c0,18.24-27.65,18.24-27.65,0S693.77,46.08,693.77,64.32Zm-25.54,26.3v95h23.43v-95Z"/></clipPath><clipPath id="clip-path-3"><path class="cls-1" d="M732,204.48H718.73l3.65-19c-5.38-1-9-4.42-9-10.37,0-17.66,27.27-16.89,27.27.58C740.62,178,740.81,177.41,732,204.48Z"/></clipPath><clipPath id="clip-path-4"><path class="cls-1" d="M801.29,185.66V51.26h25.15v134.4Z"/></clipPath><clipPath id="clip-path-5"><path class="cls-1" d="M849.67,51.26h24.19l-15,43.2H840.45Z"/></clipPath><clipPath id="clip-path-6"><path class="cls-1" d="M950.28,185.66V135c0-12.47-6.53-23.8-19.4-23.8-12.67,0-20.16,11.33-20.16,23.8v50.69H887.3V90.81H909l1.72,11.53c5-9.61,15.94-13.06,25-13.06,11.33,0,22.66,4.61,28,17.66,8.45-13.44,19.39-17.28,31.68-17.28,26.88,0,40.13,16.52,40.13,44.93v51.07H1012.1V134.59c0-12.48-5.18-23-17.85-23S973.7,122.5,973.7,135v50.69Z"/></clipPath><clipPath id="clip-path-7"><path class="cls-1" d="M1218.12,117.31c.57,34-20.16,68.35-67.2,68.35h-52.81V51.26h52.81C1197,51.26,1217.54,84.09,1218.12,117.31Zm-94.85,44h27.65c30.52,0,42.62-22.27,42-44.16-.57-20.93-12.86-41.86-42-41.86h-27.65Z"/></clipPath><clipPath id="clip-path-8"><path class="cls-1" d="M1310.08,91h22.46v94.65h-22.08l-1.15-13.82c-5.37,11.13-20.16,16.51-30.72,16.7-28,.2-48.77-17.08-48.77-50.3,0-32.64,21.7-49.73,49.35-49.54,12.67,0,24.77,6,30.14,15.36Zm-56.83,47.23c0,18,12.48,28.8,28,28.8,36.86,0,36.86-57.41,0-57.41C1265.73,109.63,1253.25,120.19,1253.25,138.24Z"/></clipPath><clipPath id="clip-path-9"><path class="cls-1" d="M1374,91l1.73,10.94c7.3-11.71,17.09-13.44,26.69-13.44,9.79,0,19.2,3.84,24.38,9l-10.56,20.36c-4.8-4-9.21-6.15-16.89-6.15-12.29,0-23.62,6.53-23.62,24v49.92h-23.42V91Z"/></clipPath><clipPath id="clip-path-10"><path class="cls-1" d="M1457.34,91l1.73,10.94c7.29-11.71,17.09-13.44,26.69-13.44,9.79,0,19.2,3.84,24.38,9l-10.56,20.36c-4.8-4-9.22-6.15-16.9-6.15-12.28,0-23.61,6.53-23.61,24v49.92h-23.43V91Z"/></clipPath><clipPath id="clip-path-11"><path class="cls-1" d="M1538.94,146.69c1.53,11.71,11.71,20.16,28.22,20.16,8.64,0,20-3.27,25.35-8.84l15,14.79c-10,10.37-26.3,15.36-40.7,15.36-32.64,0-52-20.16-52-50.5,0-28.8,19.58-49.53,50.3-49.53,31.68,0,51.46,19.58,47.81,58.56Zm51.45-19.39c-1.53-12.29-11.13-18.44-24.57-18.44-12.67,0-23,6.15-26.5,18.44Z"/></clipPath><clipPath id="clip-path-12"><path class="cls-1" d="M1700.6,185.66V136.13c0-14.4-7.87-25.35-22.85-25.35-14.4,0-24.19,12.1-24.19,26.5v48.38h-23.23V90.81h20.93l1.53,12.87c9.6-9.41,19.2-14.21,31.11-14.21,22.27,0,40.13,16.71,40.13,46.46v49.73Z"/></clipPath><clipPath id="clip-path-13"><path class="cls-1" d="M1778.74,171.84c0,20.16-30.72,20.16-30.72,0C1748,151.49,1778.74,151.49,1778.74,171.84Zm-2.88-120.39v99.08h-25.15V51.45Z"/></clipPath><linearGradient id="linear-gradient-13" x1="529.61" y1="127.56" x2="1798.96" y2="127.56" xlink:href="#linear-gradient"/></defs><title>contact</title><g class="cls-2"><rect class="cls-3" x="529.61" width="1246.25" height="255.12"/></g><g class="cls-4"><rect class="cls-3" x="529.61" width="1246.25" height="255.12"/></g><g class="cls-5"><rect class="cls-3" x="529.61" width="1246.25" height="255.12"/></g><g class="cls-6"><rect class="cls-3" x="529.61" width="1246.25" height="255.12"/></g><g class="cls-7"><rect class="cls-3" x="529.61" width="1246.25" height="255.12"/></g><g class="cls-8"><rect class="cls-3" x="529.61" width="1246.25" height="255.12"/></g><g class="cls-9"><rect class="cls-3" x="529.61" width="1246.25" height="255.12"/></g><g class="cls-10"><rect class="cls-3" x="529.61" width="1246.25" height="255.12"/></g><g class="cls-11"><rect class="cls-3" x="529.61" width="1246.25" height="255.12"/></g><g class="cls-12"><rect class="cls-3" x="529.61" width="1246.25" height="255.12"/></g><g class="cls-13"><rect class="cls-3" x="529.61" width="1246.25" height="255.12"/></g><g class="cls-14"><rect class="cls-3" x="529.61" width="1246.25" height="255.12"/></g><g class="cls-15"><rect class="cls-16" x="529.61" width="1269.35" height="255.12"/></g></svg>