<?xml version="1.0" encoding="utf-8"?>
<!-- Generator: Adobe Illustrator 22.0.1, SVG Export Plug-In . SVG Version: 6.00 Build 0)  -->
<svg version="1.1" id="Layer_1" xmlns="http://www.w3.org/2000/svg" xmlns:xlink="http://www.w3.org/1999/xlink" x="0px" y="0px"
	 viewBox="0 0 1283.2 213.7" style="enable-background:new 0 0 1283.2 213.7;" xml:space="preserve">
<style type="text/css">
	.st0{fill:#FFFFFF;}
	.st1{clip-path:url(#SVGID_2_);fill:url(#SVGID_3_);}
	.st2{clip-path:url(#SVGID_5_);fill:url(#SVGID_6_);}
	.st3{clip-path:url(#SVGID_8_);fill:url(#SVGID_9_);}
	.st4{clip-path:url(#SVGID_11_);fill:url(#SVGID_12_);}
	.st5{clip-path:url(#SVGID_14_);fill:url(#SVGID_15_);}
	.st6{clip-path:url(#SVGID_17_);fill:url(#SVGID_18_);}
	.st7{clip-path:url(#SVGID_20_);fill:url(#SVGID_21_);}
	.st8{clip-path:url(#SVGID_23_);fill:url(#SVGID_24_);}
	.st9{clip-path:url(#SVGID_26_);fill:url(#SVGID_27_);}
</style>
<rect x="-1.8" y="1.6" class="st0" width="1284.8" height="211.5"/>
<g>
	<g>
		<defs>
			<path id="SVGID_1_" d="M403.3,135.9v-33.1h-40.3v33.1h-15.5V54h15.5v34.5h40.3V54h15.3v81.9H403.3z"/>
		</defs>
		<clipPath id="SVGID_2_">
			<use xlink:href="#SVGID_1_"  style="overflow:visible;"/>
		</clipPath>
		<linearGradient id="SVGID_3_" gradientUnits="userSpaceOnUse" x1="345.7652" y1="99.229" x2="935.8199" y2="99.229">
			<stop  offset="0" style="stop-color:#FFF33B"/>
			<stop  offset="5.948725e-02" style="stop-color:#FFE029"/>
			<stop  offset="0.1303" style="stop-color:#FFD218"/>
			<stop  offset="0.2032" style="stop-color:#FEC90F"/>
			<stop  offset="0.2809" style="stop-color:#FDC70C"/>
			<stop  offset="0.6685" style="stop-color:#F3903F"/>
			<stop  offset="0.8876" style="stop-color:#ED683C"/>
			<stop  offset="1" style="stop-color:#E93E3A"/>
		</linearGradient>
		<rect x="345.8" y="-15.5" class="st1" width="590.1" height="229.5"/>
	</g>
	<g>
		<defs>
			<path id="SVGID_4_" d="M444.3,112c0.9,7.1,7.1,12.3,17.2,12.3c5.3,0,12.2-2,15.5-5.4l9.1,9c-6.1,6.3-16,9.4-24.8,9.4
				c-19.9,0-31.7-12.3-31.7-30.8c0-17.6,11.9-30.2,30.7-30.2c19.3,0,31.4,11.9,29.1,35.7H444.3z M475.7,100.2
				c-0.9-7.5-6.8-11.2-15-11.2c-7.7,0-14,3.7-16.2,11.2H475.7z"/>
		</defs>
		<clipPath id="SVGID_5_">
			<use xlink:href="#SVGID_4_"  style="overflow:visible;"/>
		</clipPath>
		<linearGradient id="SVGID_6_" gradientUnits="userSpaceOnUse" x1="345.7652" y1="99.229" x2="935.8199" y2="99.229">
			<stop  offset="0" style="stop-color:#FFF33B"/>
			<stop  offset="5.948725e-02" style="stop-color:#FFE029"/>
			<stop  offset="0.1303" style="stop-color:#FFD218"/>
			<stop  offset="0.2032" style="stop-color:#FEC90F"/>
			<stop  offset="0.2809" style="stop-color:#FDC70C"/>
			<stop  offset="0.6685" style="stop-color:#F3903F"/>
			<stop  offset="0.8876" style="stop-color:#ED683C"/>
			<stop  offset="1" style="stop-color:#E93E3A"/>
		</linearGradient>
		<rect x="345.8" y="-15.5" class="st2" width="590.1" height="229.5"/>
	</g>
	<g>
		<defs>
			<path id="SVGID_7_" d="M556.1,78.1l-35.2,81.8h-15.7l10.8-25l-23.1-56.8h16.6l8.8,24.9l5.5,16.3l6-15.9l10.5-25.3H556.1z"/>
		</defs>
		<clipPath id="SVGID_8_">
			<use xlink:href="#SVGID_7_"  style="overflow:visible;"/>
		</clipPath>
		<linearGradient id="SVGID_9_" gradientUnits="userSpaceOnUse" x1="345.7652" y1="99.229" x2="935.8199" y2="99.229">
			<stop  offset="0" style="stop-color:#FFF33B"/>
			<stop  offset="5.948725e-02" style="stop-color:#FFE029"/>
			<stop  offset="0.1303" style="stop-color:#FFD218"/>
			<stop  offset="0.2032" style="stop-color:#FEC90F"/>
			<stop  offset="0.2809" style="stop-color:#FDC70C"/>
			<stop  offset="0.6685" style="stop-color:#F3903F"/>
			<stop  offset="0.8876" style="stop-color:#ED683C"/>
			<stop  offset="1" style="stop-color:#E93E3A"/>
		</linearGradient>
		<rect x="345.8" y="-15.5" class="st3" width="590.1" height="229.5"/>
	</g>
	<g>
		<defs>
			<path id="SVGID_10_" d="M609.5,67.9h-26v-14c23.6,0,43.7,0,67.4,0v14h-26v67.9h-15.5V67.9z"/>
		</defs>
		<clipPath id="SVGID_11_">
			<use xlink:href="#SVGID_10_"  style="overflow:visible;"/>
		</clipPath>
		<linearGradient id="SVGID_12_" gradientUnits="userSpaceOnUse" x1="345.7652" y1="99.229" x2="935.8199" y2="99.229">
			<stop  offset="0" style="stop-color:#FFF33B"/>
			<stop  offset="5.948725e-02" style="stop-color:#FFE029"/>
			<stop  offset="0.1303" style="stop-color:#FFD218"/>
			<stop  offset="0.2032" style="stop-color:#FEC90F"/>
			<stop  offset="0.2809" style="stop-color:#FDC70C"/>
			<stop  offset="0.6685" style="stop-color:#F3903F"/>
			<stop  offset="0.8876" style="stop-color:#ED683C"/>
			<stop  offset="1" style="stop-color:#E93E3A"/>
		</linearGradient>
		<rect x="345.8" y="-15.5" class="st4" width="590.1" height="229.5"/>
	</g>
	<g>
		<defs>
			<path id="SVGID_13_" d="M673.5,53.8v32.1c5.2-6.7,11.5-8.7,18-8.7c16.4,0,23.6,11.1,23.6,28.1v30.4h-14.3v-30.3
				c0-10.5-5.5-15-13.1-15c-8.4,0-14.3,7.1-14.3,15.8v29.5h-14.3V53.8H673.5z"/>
		</defs>
		<clipPath id="SVGID_14_">
			<use xlink:href="#SVGID_13_"  style="overflow:visible;"/>
		</clipPath>
		<linearGradient id="SVGID_15_" gradientUnits="userSpaceOnUse" x1="345.7652" y1="99.229" x2="935.8199" y2="99.229">
			<stop  offset="0" style="stop-color:#FFF33B"/>
			<stop  offset="5.948725e-02" style="stop-color:#FFE029"/>
			<stop  offset="0.1303" style="stop-color:#FFD218"/>
			<stop  offset="0.2032" style="stop-color:#FEC90F"/>
			<stop  offset="0.2809" style="stop-color:#FDC70C"/>
			<stop  offset="0.6685" style="stop-color:#F3903F"/>
			<stop  offset="0.8876" style="stop-color:#ED683C"/>
			<stop  offset="1" style="stop-color:#E93E3A"/>
		</linearGradient>
		<rect x="345.8" y="-15.5" class="st5" width="590.1" height="229.5"/>
	</g>
	<g>
		<defs>
			<path id="SVGID_16_" d="M739.4,112c0.9,7.1,7.1,12.3,17.2,12.3c5.3,0,12.2-2,15.5-5.4l9.1,9c-6.1,6.3-16,9.4-24.8,9.4
				c-19.9,0-31.7-12.3-31.7-30.8c0-17.6,11.9-30.2,30.7-30.2c19.3,0,31.4,11.9,29.1,35.7H739.4z M770.7,100.2
				c-0.9-7.5-6.8-11.2-15-11.2c-7.7,0-14,3.7-16.2,11.2H770.7z"/>
		</defs>
		<clipPath id="SVGID_17_">
			<use xlink:href="#SVGID_16_"  style="overflow:visible;"/>
		</clipPath>
		<linearGradient id="SVGID_18_" gradientUnits="userSpaceOnUse" x1="345.7652" y1="99.229" x2="935.8199" y2="99.229">
			<stop  offset="0" style="stop-color:#FFF33B"/>
			<stop  offset="5.948725e-02" style="stop-color:#FFE029"/>
			<stop  offset="0.1303" style="stop-color:#FFD218"/>
			<stop  offset="0.2032" style="stop-color:#FEC90F"/>
			<stop  offset="0.2809" style="stop-color:#FDC70C"/>
			<stop  offset="0.6685" style="stop-color:#F3903F"/>
			<stop  offset="0.8876" style="stop-color:#ED683C"/>
			<stop  offset="1" style="stop-color:#E93E3A"/>
		</linearGradient>
		<rect x="345.8" y="-15.5" class="st6" width="590.1" height="229.5"/>
	</g>
	<g>
		<defs>
			<path id="SVGID_19_" d="M808.7,78.1l1.1,6.7c4.4-7.1,10.4-8.2,16.3-8.2c6,0,11.7,2.3,14.9,5.5l-6.4,12.4
				c-2.9-2.5-5.6-3.7-10.3-3.7c-7.5,0-14.4,4-14.4,14.6v30.4h-14.3V78.1H808.7z"/>
		</defs>
		<clipPath id="SVGID_20_">
			<use xlink:href="#SVGID_19_"  style="overflow:visible;"/>
		</clipPath>
		<linearGradient id="SVGID_21_" gradientUnits="userSpaceOnUse" x1="345.7652" y1="99.229" x2="935.8199" y2="99.229">
			<stop  offset="0" style="stop-color:#FFF33B"/>
			<stop  offset="5.948725e-02" style="stop-color:#FFE029"/>
			<stop  offset="0.1303" style="stop-color:#FFD218"/>
			<stop  offset="0.2032" style="stop-color:#FEC90F"/>
			<stop  offset="0.2809" style="stop-color:#FDC70C"/>
			<stop  offset="0.6685" style="stop-color:#F3903F"/>
			<stop  offset="0.8876" style="stop-color:#ED683C"/>
			<stop  offset="1" style="stop-color:#E93E3A"/>
		</linearGradient>
		<rect x="345.8" y="-15.5" class="st7" width="590.1" height="229.5"/>
	</g>
	<g>
		<defs>
			<path id="SVGID_22_" d="M858.4,112c0.9,7.1,7.1,12.3,17.2,12.3c5.3,0,12.2-2,15.5-5.4l9.1,9c-6.1,6.3-16,9.4-24.8,9.4
				c-19.9,0-31.7-12.3-31.7-30.8c0-17.6,11.9-30.2,30.7-30.2c19.3,0,31.4,11.9,29.1,35.7H858.4z M889.8,100.2
				c-0.9-7.5-6.8-11.2-15-11.2c-7.7,0-14,3.7-16.2,11.2H889.8z"/>
		</defs>
		<clipPath id="SVGID_23_">
			<use xlink:href="#SVGID_22_"  style="overflow:visible;"/>
		</clipPath>
		<linearGradient id="SVGID_24_" gradientUnits="userSpaceOnUse" x1="345.7652" y1="99.229" x2="935.8199" y2="99.229">
			<stop  offset="0" style="stop-color:#FFF33B"/>
			<stop  offset="5.948725e-02" style="stop-color:#FFE029"/>
			<stop  offset="0.1303" style="stop-color:#FFD218"/>
			<stop  offset="0.2032" style="stop-color:#FEC90F"/>
			<stop  offset="0.2809" style="stop-color:#FDC70C"/>
			<stop  offset="0.6685" style="stop-color:#F3903F"/>
			<stop  offset="0.8876" style="stop-color:#ED683C"/>
			<stop  offset="1" style="stop-color:#E93E3A"/>
		</linearGradient>
		<rect x="345.8" y="-15.5" class="st8" width="590.1" height="229.5"/>
	</g>
	<g>
		<defs>
			<path id="SVGID_25_" d="M935.5,127.4c0,12.3-18.7,12.3-18.7,0C916.8,114.9,935.5,114.9,935.5,127.4z M933.8,54v60.4h-15.3V54
				H933.8z"/>
		</defs>
		<clipPath id="SVGID_26_">
			<use xlink:href="#SVGID_25_"  style="overflow:visible;"/>
		</clipPath>
		<linearGradient id="SVGID_27_" gradientUnits="userSpaceOnUse" x1="345.7652" y1="99.229" x2="935.8199" y2="99.229">
			<stop  offset="0" style="stop-color:#FFF33B"/>
			<stop  offset="5.948725e-02" style="stop-color:#FFE029"/>
			<stop  offset="0.1303" style="stop-color:#FFD218"/>
			<stop  offset="0.2032" style="stop-color:#FEC90F"/>
			<stop  offset="0.2809" style="stop-color:#FDC70C"/>
			<stop  offset="0.6685" style="stop-color:#F3903F"/>
			<stop  offset="0.8876" style="stop-color:#ED683C"/>
			<stop  offset="1" style="stop-color:#E93E3A"/>
		</linearGradient>
		<rect x="345.8" y="-15.5" class="st9" width="590.1" height="229.5"/>
	</g>
</g>
</svg>
