<svg id="Layer_1" data-name="Layer 1" xmlns="http://www.w3.org/2000/svg" xmlns:xlink="http://www.w3.org/1999/xlink" viewBox="0 0 1284.83 211.51"><defs><style>.cls-1{fill:none;}.cls-2{fill:#fff;}.cls-3{clip-path:url(#clip-path);}.cls-4{fill:url(#linear-gradient);}.cls-5{clip-path:url(#clip-path-2);}.cls-6{clip-path:url(#clip-path-3);}.cls-7{clip-path:url(#clip-path-4);}.cls-8{clip-path:url(#clip-path-5);}.cls-9{clip-path:url(#clip-path-6);}.cls-10{clip-path:url(#clip-path-7);}.cls-11{clip-path:url(#clip-path-8);}.cls-12{clip-path:url(#clip-path-9);}.cls-13{clip-path:url(#clip-path-10);}.cls-14{clip-path:url(#clip-path-11);}</style><clipPath id="clip-path"><path class="cls-1" d="M399.53,142.45V112.31H362.89v30.14H348.83V67.89h14.06V99.31h36.64V67.89h14v74.56Z"/></clipPath><linearGradient id="linear-gradient" x1="348.83" y1="113.48" x2="938.88" y2="113.48" gradientUnits="userSpaceOnUse"><stop offset="0" stop-color="#f6eb16"/><stop offset="1" stop-color="#ed2424"/></linearGradient><clipPath id="clip-path-2"><path class="cls-1" d="M436.8,120.72c.86,6.5,6.5,11.18,15.66,11.18,4.79,0,11.08-1.81,14.06-4.9l8.31,8.2c-5.54,5.75-14.59,8.52-22.58,8.52-18.11,0-28.86-11.18-28.86-28,0-16,10.86-27.47,27.9-27.47,17.57,0,28.54,10.86,26.52,32.48ZM465.35,110c-.85-6.81-6.18-10.22-13.63-10.22-7,0-12.79,3.41-14.7,10.22Z"/></clipPath><clipPath id="clip-path-3"><path class="cls-1" d="M500.71,67.89v74.45H487.82V67.89Z"/></clipPath><clipPath id="clip-path-4"><path class="cls-1" d="M525,67.89v74.45H512.1V67.89Z"/></clipPath><clipPath id="clip-path-5"><path class="cls-1" d="M588.58,116.14c0,15.12-10.34,27.37-27.38,27.37s-27.26-12.25-27.26-27.37,10.44-27.37,27.16-27.37S588.58,101.12,588.58,116.14Zm-41.65,0c0,8,4.8,15.44,14.27,15.44s14.28-7.45,14.28-15.44-5.54-15.55-14.28-15.55C551.83,100.59,546.93,108.26,546.93,116.14Z"/></clipPath><clipPath id="clip-path-6"><path class="cls-1" d="M639.27,80.57H615.63V67.79H677V80.57H653.33v61.77H639.27Z"/></clipPath><clipPath id="clip-path-7"><path class="cls-1" d="M697.53,67.79V97c4.69-6.07,10.44-7.88,16.4-7.88,14.91,0,21.52,10.12,21.52,25.56v27.69h-13V114.75c0-9.58-5-13.63-11.92-13.63-7.67,0-13,6.5-13,14.38v26.84h-13V67.79Z"/></clipPath><clipPath id="clip-path-8"><path class="cls-1" d="M757.49,120.72c.86,6.5,6.5,11.18,15.66,11.18,4.79,0,11.08-1.81,14.06-4.9l8.31,8.2c-5.54,5.75-14.59,8.52-22.58,8.52-18.11,0-28.86-11.18-28.86-28,0-16,10.86-27.47,27.9-27.47,17.57,0,28.54,10.86,26.52,32.48ZM786,110c-.85-6.81-6.18-10.22-13.63-10.22-7,0-12.79,3.41-14.7,10.22Z"/></clipPath><clipPath id="clip-path-9"><path class="cls-1" d="M820.55,89.83l1,6.07c4-6.49,9.47-7.45,14.8-7.45s10.65,2.13,13.53,5L844,104.74a13,13,0,0,0-9.37-3.4c-6.82,0-13.1,3.62-13.1,13.31v27.69h-13V89.83Z"/></clipPath><clipPath id="clip-path-10"><path class="cls-1" d="M865.81,120.72c.85,6.5,6.5,11.18,15.66,11.18,4.79,0,11.07-1.81,14.06-4.9l8.3,8.2c-5.53,5.75-14.59,8.52-22.57,8.52-18.11,0-28.87-11.18-28.87-28,0-16,10.87-27.47,27.91-27.47,17.57,0,28.54,10.86,26.52,32.48ZM894.36,110c-.86-6.81-6.18-10.22-13.64-10.22-7,0-12.78,3.41-14.69,10.22Z"/></clipPath><clipPath id="clip-path-11"><path class="cls-1" d="M936,134.67c0,11.18-17,11.18-17,0S936,123.38,936,134.67Zm-1.6-66.78v55H920.45v-55Z"/></clipPath></defs><title>hellothere</title><rect class="cls-2" width="1284.83" height="211.51"/><g class="cls-3"><rect class="cls-4" x="348.83" y="28.62" width="590.05" height="169.7"/></g><g class="cls-5"><rect class="cls-4" x="348.83" y="28.62" width="590.05" height="169.7"/></g><g class="cls-6"><rect class="cls-4" x="348.83" y="28.62" width="590.05" height="169.7"/></g><g class="cls-7"><rect class="cls-4" x="348.83" y="28.62" width="590.05" height="169.7"/></g><g class="cls-8"><rect class="cls-4" x="348.83" y="28.62" width="590.05" height="169.7"/></g><g class="cls-9"><rect class="cls-4" x="348.83" y="28.62" width="590.05" height="169.7"/></g><g class="cls-10"><rect class="cls-4" x="348.83" y="28.62" width="590.05" height="169.7"/></g><g class="cls-11"><rect class="cls-4" x="348.83" y="28.62" width="590.05" height="169.7"/></g><g class="cls-12"><rect class="cls-4" x="348.83" y="28.62" width="590.05" height="169.7"/></g><g class="cls-13"><rect class="cls-4" x="348.83" y="28.62" width="590.05" height="169.7"/></g><g class="cls-14"><rect class="cls-4" x="348.83" y="28.62" width="590.05" height="169.7"/></g></svg>