<svg width="200" height="200" viewBox="0 0 200 200" fill="none" xmlns="http://www.w3.org/2000/svg">
<path d="M200 36.6389V163.232C199.704 163.999 199.456 164.784 199.256 165.582C195.618 185.034 179.536 199.527 159.741 199.711C119.927 200.096 80.1084 200.096 40.2839 199.711C29.7158 199.579 19.6185 195.319 12.1491 187.842C4.67965 180.364 0.430321 170.262 0.308892 159.694C-0.159435 119.885 -0.0423532 80.0519 0.308892 40.235C0.400884 26.3439 6.75675 14.9115 18.5067 7.43482C23.9594 3.96412 30.6414 2.41694 36.7965 0H163.353C164.113 0.287072 164.886 0.535496 165.67 0.744318C181.643 4.03381 192.359 13.3531 197.817 28.7023C198.737 31.2781 199.281 33.9877 200 36.6389ZM83.7547 66.7963V158.013H108.425V153.321C108.425 140.007 108.241 126.685 108.526 113.371C108.6 109.232 109.401 105.139 110.893 101.277C113.652 94.3863 120.042 90.9406 127.175 91.5512C133.364 92.078 138.666 96.6443 140.464 103.577C141.265 106.803 141.672 110.114 141.677 113.437C141.819 124.953 141.735 136.47 141.735 147.986V158.021H166.724C166.724 156.541 166.724 155.312 166.724 154.091C166.674 134.939 167.426 115.754 166.347 96.6694C165.126 75.0256 148.417 63.0329 127.811 67.6242C120.05 69.3638 113.711 73.5621 108.317 81.0052V66.7963H83.7547ZM66.46 158.046V66.9636H41.9816V158.046H66.46ZM54.1832 26.6867C51.2793 26.6885 48.4414 27.5532 46.0299 29.171C43.6183 30.7888 41.7419 33.0866 40.6387 35.7729C39.5356 38.4592 39.2556 41.4127 39.8342 44.2584C40.4128 47.1041 41.8239 49.7137 43.8884 51.7559C45.953 53.7981 48.5777 55.1807 51.4296 55.7283C54.2814 56.2759 57.2316 55.9637 59.9056 54.8313C62.5796 53.6989 64.8569 51.7975 66.4483 49.3685C68.0396 46.9394 68.8733 44.0922 68.8435 41.1884C68.7887 37.3319 67.2215 33.6512 64.4795 30.9388C61.7375 28.2265 58.04 26.6995 54.1832 26.6867Z" fill="white"/>
</svg>
