<svg width="1440" height="643" viewBox="0 0 1440 643" fill="none" xmlns="http://www.w3.org/2000/svg">
<path d="M430.301 556.188H225.967C166.059 556.117 108.625 532.287 66.2633 489.925C23.9017 447.563 0.0715643 390.129 0 330.221V319.912C0 193.728 103.502 87.1502 225.967 87.1502H328.117C337.031 86.9499 345.894 88.5324 354.188 91.805C362.481 95.0776 370.037 99.9742 376.412 106.207C382.787 112.44 387.852 119.884 391.31 128.102C394.768 136.32 396.549 145.146 396.549 154.061C396.549 162.977 394.768 171.803 391.31 180.021C387.852 188.239 382.787 195.683 376.412 201.916C370.037 208.149 362.481 213.045 354.188 216.318C345.894 219.591 337.031 221.173 328.117 220.973H225.967C176.886 220.973 133.823 267.18 133.823 319.912V330.221C133.849 354.651 143.566 378.073 160.841 395.348C178.115 412.622 201.537 422.339 225.967 422.366H430.301C454.713 422.312 478.109 412.584 495.362 395.312C512.615 378.04 522.317 354.634 522.344 330.221V69.3703C522.144 60.4568 523.726 51.5932 526.999 43.2998C530.271 35.0064 535.168 27.4505 541.401 21.0757C547.634 14.7009 555.078 9.63571 563.296 6.17759C571.514 2.71947 580.34 0.93811 589.255 0.93811C598.171 0.93811 606.997 2.71947 615.215 6.17759C623.432 9.63571 630.876 14.7009 637.109 21.0757C643.343 27.4505 648.239 35.0064 651.512 43.2998C654.784 51.5932 656.367 60.4568 656.167 69.3703V330.221C656.095 390.112 632.279 447.531 589.939 489.889C547.6 532.248 490.192 556.09 430.301 556.188Z" fill="white"/>
<path d="M1009.73 87.455H1214.03C1273.94 87.5265 1331.38 111.357 1373.74 153.718C1416.1 196.08 1439.93 253.514 1440 313.422V323.563C1440 449.746 1336.53 556.358 1214.03 556.358H1111.88C1094.4 555.965 1077.76 548.743 1065.53 536.237C1053.31 523.732 1046.46 506.937 1046.46 489.447C1046.46 471.957 1053.31 455.161 1065.53 442.656C1077.76 430.15 1094.4 422.928 1111.88 422.535H1214.03C1263.11 422.535 1306.18 376.294 1306.18 323.563V313.422C1306.15 288.992 1296.43 265.57 1279.16 248.296C1261.88 231.021 1238.46 221.304 1214.03 221.277H1009.73C985.303 221.304 961.881 231.021 944.606 248.296C927.332 265.57 917.615 288.992 917.588 313.422V574.273C917.789 583.186 916.206 592.05 912.933 600.343C909.661 608.637 904.764 616.193 898.531 622.568C892.298 628.942 884.854 634.008 876.636 637.466C868.419 640.924 859.593 642.705 850.677 642.705C841.761 642.705 832.935 640.924 824.718 637.466C816.5 634.008 809.056 628.942 802.823 622.568C796.59 616.193 791.693 608.637 788.42 600.343C785.148 592.05 783.565 583.186 783.766 574.273V313.422C783.837 253.514 807.667 196.08 850.029 153.718C892.391 111.357 949.825 87.5265 1009.73 87.455Z" fill="white"/>
</svg>
